# AST/ASF file generated using VICON BodyLanguage
# -----------------------------------------------
:version 1.10
:name VICON
:units
  mass 1.0
  length 0.45
  angle deg
:documentation
   .ast/.asf automatically generated from VICON data using
   VICON BodyBuilder and BodyLanguage model FoxedUp or BRILLIANT.MOD
:root
   order TX TY TZ RX RY RZ
   axis XYZ
   position 0 0 0  
   orientation 0 0 0 
:bonedata
  begin
     id 1 
     name lhipjoint
     direction 0.567149 -0.783011 0.255413 
     length 2.28399 
     axis 0 0 0  XYZ
  end
  begin
     id 2 
     name lfemur
     direction 0.34202 -0.939693 0  
     length 7.34031  
     axis 0 0 20  XYZ
    dof rx ry rz
    limits (-160.0 20.0)
           (-70.0 70.0)
           (-60.0 70.0)
  end
  begin
     id 3 
     name ltibia
     direction 0.34202 -0.939693 0   
     length 6.9833   
     axis 0 0 20   XYZ
    dof rx
    limits (-10.0 170.0)
  end
  begin
     id 4 
     name lfoot
     direction 0.136498 -0.375025 0.91691   
     length 2.33665   
     axis -90 7.62852e-016 20   XYZ
    dof rx rz
    limits (-45.0 90.0)
           (-70.0 20.0)
  end
  begin
     id 5 
     name ltoes
     direction 1.5367e-011 -4.21617e-011 1   
     length 1.15039   
     axis -90 7.62852e-016 20   XYZ
    dof rx
    limits (-90.0 20.0)
  end
  begin
     id 6 
     name rhipjoint
     direction -0.602854 -0.758518 0.247423   
     length 2.35775  
     axis 0 0 0  XYZ 
  end
  begin
     id 7 
     name rfemur
     direction -0.34202 -0.939693 0   
     length 7.43932   
     axis 0 0 -20   XYZ
    dof rx ry rz
    limits (-160.0 20.0)
           (-70.0 70.0)
           (-70.0 60.0)
  end
  begin
     id 8 
     name rtibia
     direction -0.34202 -0.939693 0   
     length 7.11893   
     axis 0 0 -20   XYZ
    dof rx
    limits (-10.0 170.0)
 end
 begin
     id 9 
     name rfoot
     direction -0.131771 -0.362037 0.922803   
     length 2.53019  
     axis -90 -7.62852e-016 -20   XYZ
    dof rx rz
    limits (-45.0 90.0)
           (-20.0 70.0)
  end
  begin
     id 10 
     name rtoes
     direction -1.53733e-011 -4.21932e-011 1   
     length 1.24596   
     axis -90 -7.62852e-016 -20   XYZ
    dof rx
    limits (-90.0 20.0)
  end
  begin
     id 11 
     name lowerback
     direction 0.0235427 0.999023 -0.0374125   
     length 2.21768   
     axis 0 0 0   XYZ
    dof rx ry rz
    limits (-20.0 45.0)
           (-30.0 30.0)
           (-30.0 30.0)
  end
  begin
     id 12 
     name upperback
     direction 0.0302156 0.996818 -0.073759   
     length 2.20352   
     axis 0 0 0   XYZ
    dof rx ry rz
    limits (-20.0 45.0)
           (-30.0 30.0)
           (-30.0 30.0)
  end
  begin
     id 13 
     name thorax
     direction 0.0187169 0.998235 -0.0563532   
     length 2.22103   
     axis 0 0 0   XYZ
    dof rx ry rz
    limits (-20.0 45.0)
           (-30.0 30.0)
           (-30.0 30.0)
  end
  begin
     id 14 
     name lowerneck
     direction -0.119528 0.987423 0.103481   
     length 1.72948   
     axis 0 0 0   XYZ
    dof rx ry rz
    limits (-20.0 45.0)
           (-30.0 30.0)
           (-30.0 30.0)
  end
  begin
     id 15 
     name upperneck
     direction 0.248049 0.963095 -0.104496   
     length 1.74979   
     axis 0 0 0   XYZ
    dof rx ry rz
    limits (-20.0 45.0)
           (-30.0 30.0)
           (-30.0 30.0)
  end
  begin
     id 16
     name head
     direction 0.0903589 0.994284 -0.056876  
     length 1.78268  
     axis 0 0 0   XYZ
    dof rx ry rz
    limits (-20.0 45.0)
           (-30.0 30.0)
           (-30.0 30.0)
  end
  begin
     id 17 
     name lclavicle
     direction 0.946008 0.242039 -0.215608  
     length 3.80783  
     axis 0 0 0   XYZ
    dof ry rz
    limits (-20.0 10.0)
           (0.0 20.0)
  end
  begin
     id 18 
     name lhumerus
     direction 1 -4.48991e-011 -2.25695e-027   
     length 4.83125   
     axis 180 -30 -90   XYZ
    dof rx ry rz
    limits (-60.0 90.0)
           (-90.0 90.0)
           (-90.0 90.0)
  end
  begin
     id 19
     name lradius
     direction 0.999991 0.00366712 -0.00211721   
     length 3.00391   
     axis 180 -30 -90   XYZ
    dof rx
    limits (-10.0 170.0)
  end
  begin
     id 20
     name lwrist
     direction 0.999991 0.00393016 -0.00141978   
     length 1.50195   
     axis -1.00488e-014 90 90   XYZ
    dof ry
    limits (-180.0 0.0)
 end
  begin
     id 21 
     name lhand
     direction 1 -4.49123e-011 2.72098e-026   
     length 1.2717   
     axis -1.73687e-014 90 90   XYZ
    dof rx rz
    limits (-90.0 90.0)
           (-45.0 45.0)
  end
  begin
     id 22 
     name lfingers
     direction 1 -4.48678e-011 5.4479e-026   
     length 1.02528   
     axis -3.47372e-014 90 90   XYZ
    dof rx
    limits (0.0 90.0)
  end
  begin
     id 23
     name lthumb
     direction 0.707107 -6.34851e-011 0.707107   
     length 1.4721   
     axis -90 45 -1.62303e-014   XYZ
    dof rx rz
    limits (-45.0 45.0)
           (-45.0 45.0)
  end
  begin
     id 24 
     name rclavicle
     direction -0.981723 0.189447 -0.0181673   
     length 3.74989  
     axis 0 0 0   XYZ 
    dof ry rz
    limits (-10.0 20.0)
           (-20.0 0.0)
  end
  begin
     id 25 
     name rhumerus
     direction -1 -4.48985e-011 2.38206e-027  
     length 4.61118   
     axis 180 30 90   XYZ
    dof rx ry rz
    limits (-90.0 60.0)
           (-90.0 90.0)
           (-90.0 90.0)
  end
  begin
     id 26 
     name rradius
     direction -1 -4.48977e-011 7.41019e-027   
     length 2.91491   
     axis 180 30 90   XYZ
    dof rx
    limits (-10.0 170.0)
  end
  begin
     id 27 
     name rwrist
     direction -1 -4.48549e-011 1.3624e-026   
     length 1.45745   
     axis -1.00488e-014 -90 -90   XYZ
    dof ry
    limits (-180.0 0.0)
  end
  begin
     id 28
     name rhand
     direction -1 -4.49107e-011 2.72109e-026   
     length 1.30769   
     axis -1.73687e-014 -90 -90   XYZ
    dof rx rz
    limits (-90.0 90.0)
           (-45.0 45.0)
  end
  begin
     id 29
     name rfingers
     direction -1 -4.48919e-011 5.44468e-026   
     length 1.05429   
     axis -3.47372e-014 -90 -90   XYZ
    dof rx
    limits (0.0 90.0)
  end
  begin
     id 30
     name rthumb
     direction -0.707107 -6.35315e-011 0.707107   
     length 1.51376   
     axis -90 -45 1.62303e-014   XYZ
    dof rx rz
    limits (-45.0 45.0)
           (-45.0 45.0)
  end
:hierarchy
  begin
    root lhipjoint rhipjoint lowerback
    lhipjoint lfemur
    lfemur ltibia
    ltibia lfoot
    lfoot ltoes
    rhipjoint rfemur
    rfemur rtibia
    rtibia rfoot
    rfoot rtoes
    lowerback upperback
    upperback thorax
    thorax lowerneck lclavicle rclavicle
    lowerneck upperneck
    upperneck head
    lclavicle lhumerus
    lhumerus lradius
    lradius lwrist
    lwrist lhand lthumb
    lhand lfingers
    rclavicle rhumerus
    rhumerus rradius
    rradius rwrist
    rwrist rhand rthumb
    rhand rfingers
  end

#!OML:ASF X:\für Bonn\!DataBase\2005_08_11_Bastian_Final\c3d\Bastian.ASF
:FULLY-SPECIFIED
:DEGREES
1
root 1.05244 17.6869 -0.420812 175.424 -7.04417 -173.045
lowerback 8.61272 -2.37417 1.323
upperback 2.86093 -3.25008 1.6744
thorax -1.83236 -1.72646 1.31346
lowerneck -12.6472 -6.71589 -4.46628
upperneck 0.375958 -8.39609 10.0703
head 2.78407 -3.63524 3.24623
rclavicle -1.47101e-014 6.36111e-015
rhumerus 78.4798 10.0005 21.3122
rradius 39.7821
rwrist -71.7855
rhand -44.4455 -5.67574
rfingers 7.12502
rthumb -17.25 -34.9301
lclavicle -1.47101e-014 6.36111e-015
lhumerus 78.6949 -15.6454 -54.6042
lradius 33.1666
lwrist 43.5472
lhand -43.4065 16.0147
lfingers 7.12502
lthumb -16.2498 45.3538
rfemur -7.24116 0.739767 28.1718
rtibia 39.4683
rfoot -18.1222 -11.4673
rtoes -7.79217
lfemur -0.160574 -1.27064 -12.7839
ltibia 28.9291
lfoot -16.0343 -1.74828
ltoes -25.839
2
root 1.04621 17.6611 -0.43051 175.478 -7.08198 -173.026
lowerback 8.35737 -2.36687 1.26499
upperback 2.83001 -3.2435 1.69422
thorax -1.71936 -1.72051 1.35333
lowerneck -12.1599 -6.7006 -4.44802
upperneck 0.121617 -8.37428 10.1177
head 2.63103 -3.64412 3.27515
rclavicle 7.30534e-015 5.56597e-015
rhumerus 78.2498 9.73024 21.6013
rradius 39.9049
rwrist -71.6388
rhand -44.58 -5.88973
rfingers 7.12502
rthumb -17.3795 -35.1327
lclavicle 7.30534e-015 5.56597e-015
lhumerus 78.3011 -15.3945 -53.7081
lradius 33.1964
lwrist 43.0128
lhand -43.4602 15.6698
lfingers 7.12502
lthumb -16.3015 45.0046
rfemur -7.2295 -0.109505 28.022
rtibia 39.5556
rfoot -18.638 -10.7205
rtoes -8.33829
lfemur -0.148706 -0.185784 -12.562
ltibia 28.9592
lfoot -16.3584 -2.75126
ltoes -25.3707
3
root 1.04058 17.6247 -0.4348 175.458 -7.12449 -173.004
lowerback 8.22113 -2.35849 1.22723
upperback 2.82882 -3.23583 1.69519
thorax -1.64347 -1.71564 1.36765
lowerneck -11.7556 -6.69533 -4.38599
upperneck -0.11155 -8.36776 10.1461
head 2.49575 -3.65714 3.2881
rclavicle -1.66979e-014 2.82274e-014
rhumerus 77.9818 9.46988 21.8132
rradius 40.0548
rwrist -71.5246
rhand -44.7737 -6.05516
rfingers 7.12502
rthumb -17.5659 -35.2816
lclavicle -1.66979e-014 2.82274e-014
lhumerus 77.9343 -15.108 -52.7902
lradius 33.1687
lwrist 42.3762
lhand -43.3973 15.3411
lfingers 7.12502
lthumb -16.241 44.6808
rfemur -7.13684 -0.902951 27.8897
rtibia 39.5805
rfoot -19.1648 -10.0623
rtoes -8.80372
lfemur -0.154748 0.898147 -12.3382
ltibia 29.1316
lfoot -16.7544 -3.76091
ltoes -24.8525
4
root 1.03566 17.5811 -0.433749 175.416 -7.16688 -173.021
lowerback 8.1695 -2.34331 1.13842
upperback 2.81634 -3.22086 1.69466
thorax -1.62343 -1.70726 1.41296
lowerneck -11.2484 -6.69183 -4.42064
upperneck -0.535163 -8.34618 9.93248
head 2.52434 -3.69137 3.59796
rclavicle 2.71838e-014 -5.56597e-015
rhumerus 77.7192 9.21434 22.2248
rradius 40.2729
rwrist -71.6673
rhand -45.0209 -6.14634
rfingers 7.12502
rthumb -17.8038 -35.3513
lclavicle 2.71838e-014 -5.56597e-015
lhumerus 77.5667 -14.8405 -51.6819
lradius 33.113
lwrist 41.4766
lhand -43.2062 15.1035
lfingers 7.12502
lthumb -16.0569 44.4582
rfemur -7.00459 -1.41589 27.7761
rtibia 39.5332
rfoot -19.6862 -9.73038
rtoes -9.21016
lfemur -0.241483 1.97534 -12.1594
ltibia 29.4513
lfoot -17.2395 -4.76191
ltoes -24.4912
